<svg xmlns="http://www.w3.org/2000/svg" width="1552" height="425"><path fill="#4099da" fill-rule="evenodd" d="M222.8 55.2c90.4 13.9 157.6 87.7 157.6 182.5 0 104.4-82.3 186.8-189.9 186.8C82.8 424.5 1 342.1 1 237.7 1 142.9 69.4 69.1 158.7 55.2V.2h64.1zm83.4 182c0-57.6-33.4-101.2-83.4-114.1v109.3h-64.6V123.1c-49.5 12.9-82.9 56.5-82.9 114.1 0 66.2 49.5 116.8 115.2 116.8 65.6 0 115.7-50 115.7-116.8M579 166.7V235c-30.1.6-71.6 10.3-89.9 29.1v154.5h-67.8V167.8h68.4v26.3c25.8-19.9 61.9-28.5 89.3-27.4m14.6 212.1 37.6-48.5c16.7 21 42.5 32.9 68.4 32.9 16.1 0 26.3-7 26.3-18.9 0-17.2-16.1-21-47.8-28-50.6-10.7-74.9-36-74.9-76.9 0-44.2 40.4-77 93.7-77 35.5 0 67.3 12.4 90.4 36.6l-33.4 44.7c-17.2-15.1-35.5-22.6-56.5-22.6-16.1 0-26.9 6.4-26.9 16.6 0 14 11.9 16.7 47.4 23.7 48.4 10.3 74.8 38.8 74.8 80.8 0 46.3-38.2 79.1-91 79.1-43.6 1.1-85.5-15.1-108.1-42.5m411.7 27.4c-20.5 10.3-42 15.1-62.5 15.1-51.6 0-92.5-33.9-92.5-96.9v-95.8h-40.9v-60.8h40.9V88.1h67.2v79.7h67.3l-16.7 61.3h-50v87.2c0 31.3 15.6 45.8 37.1 45.8 10.2 0 22.6-3.2 34.5-9.7zm138.8-44.1c29.1 0 48.4-13 61.4-31.3l43.6 43.1c-23.2 31.2-61.9 50.1-105 50.1-76.4 0-134-56-134-130.3 0-73.8 56.5-130.3 131.3-130.3 71.1 0 121.1 55.5 121.1 126.5 0 9.2-.5 17.8-1.6 24.3h-178.7c7 29 31.8 47.9 61.9 47.9m-60.8-96.4h111.4c-7-26.9-26.9-44.1-52.7-44.1-28.6-.6-50.1 16.6-58.7 44.1M1551 56.8v361.8h-68.4v-11.9c-18.3 10.8-39.8 16.7-62.9 16.7-73.2 0-128.7-56-128.7-130.2 0-74.3 55.5-130.3 128.7-130.3 23.1 0 44.6 5.9 62.9 16.7V56.8zm-67.2 281v-89.3c-11.4-13.5-30.7-23.2-53.9-23.2-39.3 0-67.2 29.6-67.2 68.4s28.5 68.4 67.2 68.4c23.2-.6 42-10.3 53.9-24.3"/></svg>