<svg xmlns="http://www.w3.org/2000/svg" width="1544" height="398"><path fill="#4d4d4f" d="M151.4 33.9h-56v105.8H56.3V33.9H.1V2h151.3zM170.2 140V2h132.1v29.9H209v23.5h87.7v27.8H209v26.9h97.9V140zm153.3-66.1c0-17.2 3.4-31.2 10-42 6.5-10.9 16.7-18.8 29.8-24S392.7.2 412.1.2s12.2 0 17.4.5c5.2.2 9.9.6 14.5 1.3 4.5.7 8.8 1.4 13.1 2.3 4.2.9 8.5 2 13.3 3.2l-7.9 28.2c-5.7-1.1-11.3-2-16.7-2.9-5.5-.7-10.7-1.4-15.6-1.6-5.2-.5-10.2-.7-15.4-.7-8.8 0-16.5.9-23 2.5-6.4 1.6-11.8 4.1-15.8 7.5-4.1 3.4-7 7.9-9.1 13.3-2 5.4-2.9 12-2.9 19.7s.9 12.6 2.9 17.6c2.1 5 5 9.1 9.1 12.2 4 3.2 9.2 5.5 15.3 7 6.1 1.6 13.6 2.3 22.2 2.3 8.5 0 17.8-.5 27.3-1.6 9.3-1.1 18.3-2.7 26.6-4.7l7.1 27.3c-4.6 1.4-9.1 2.5-13.6 3.6q-6.8 1.7-14.9 2.8c-5.4.6-11.1 1.3-17.4 1.8q-9.5.6-21 .6c-13.6 0-25.8-1.3-36.2-3.8s-19.2-6.6-26.2-12-12.4-12.4-16-21q-5.4-12.9-5.4-31.2zm172.1 66V2h39.3v58.8h75.7V2h39.3v137.9h-39.3V93.1h-75.7v46.8z"/><path fill="#e31837" fill-rule="evenodd" d="M331 259.3h105.1c23.9 0 43.3 18.8 43.3 41.9V397H322.2c-14.4 0-26.4-11.5-26.4-25.5v-33.3c0-13.1 11.1-23.7 24.6-23.7h87.2l-9.3 19.4h-64.1c-2.9 0-5.9 2.1-5.9 5.2v26.3c0 2.9 3.2 5.2 5.9 5.2h111.1v-62.9c0-12.2-10.8-21.5-22.8-21.5H318.1l12.7-26.6zm863.7-50.2v187.6h-153.2c-14.5 0-26.4-11.5-26.4-25.5v-70.3c0-23.1 19.4-41.9 43.3-41.9h87.5l-12.9 26.7h-61c-12 0-22.8 9.3-22.8 21.5v57.6c0 3 3.1 5.2 5.8 5.2h105.8V209.1zM656.1 396.7v-89.5c0-12.2-10.8-21.5-22.8-21.5h-71.4l12.9-26.7h72c24 0 43.4 18.8 43.4 41.9v95.8zM549 209.1v187.6h-33.9V209.1zM231.4 396.7v-89.5c0-12.2-10.8-21.5-22.8-21.5h-53.1c-2.7 0-5.9 2.3-5.9 5.2v105.8h-33.9V290.9c0-3.2-2.9-5.2-5.8-5.2H39.8c-2.7 0-5.8 2.3-5.8 5.2v105.8H.1V259h222.5c23.9 0 43.4 18.8 43.4 41.9v95.8zm1140.1-137.4-12.8 26.6h-58.8c-11.9 0-22.8 9.3-22.8 21.5V397h-33.9v-95.9c0-23.1 19.5-41.8 43.4-41.8zm-434.2 0c23.9 0 43.4 18.7 43.4 41.8V397h-33.9v-89.6c0-12.2-10.9-21.5-22.8-21.5h-81.6V397h-33.9V259.5h129zm-205.1 8.6 33.9-19.5v148.4h-33.9zm.2-19.3v-39.8h33.9v20.4zm663.1 10.6h105c24 0 43.4 18.8 43.4 41.8v95.9h-157.3c-14.4 0-26.4-11.5-26.4-25.5v-33.3c0-13.1 11.1-23.7 24.6-23.7h87.2l-9.2 19.4h-64.2c-2.9 0-5.9 2.1-5.9 5.2v26.3c0 2.9 3.2 5.2 5.9 5.2h111.2v-62.9c0-12.2-10.9-21.5-22.8-21.5h-104.4l12.6-26.7z"/></svg>